<svg id="visual" viewBox="0 0 960 540" width="960" height="540" xmlns="http://www.w3.org/2000/svg" xmlns:xlink="http://www.w3.org/1999/xlink" version="1.1"><rect x="0" y="0" width="960" height="540" fill="#fff"></rect><defs><linearGradient id="grad1_0" x1="43.8%" y1="100%" x2="100%" y2="0%"><stop offset="14.444444444444446%" stop-color="#ffffff" stop-opacity="1"></stop><stop offset="85.55555555555554%" stop-color="#ffffff" stop-opacity="1"></stop></linearGradient></defs><defs><linearGradient id="grad2_0" x1="0%" y1="100%" x2="56.3%" y2="0%"><stop offset="14.444444444444446%" stop-color="#ffffff" stop-opacity="1"></stop><stop offset="85.55555555555554%" stop-color="#ffffff" stop-opacity="1"></stop></linearGradient></defs><g transform="translate(960, 540)"><path d="M-108 0C-105.3 -19.2 -102.7 -38.4 -93.5 -54C-84.4 -69.6 -68.7 -81.7 -52 -90.1C-35.3 -98.5 -17.7 -103.2 0 -108L0 0Z" fill="#667a94"></path></g><g transform="translate(0, 0)"><path d="M108 0C105.5 19.4 103 38.8 93.5 54C84.1 69.2 67.7 80 51 88.3C34.3 96.6 17.1 102.3 0 108L0 0Z" fill="#667a94"></path></g></svg>