<svg id="visual" viewBox="0 0 960 540" width="960" height="540" xmlns="http://www.w3.org/2000/svg" xmlns:xlink="http://www.w3.org/1999/xlink" version="1.1"><rect x="0" y="0" width="960" height="540" fill="#00214d"></rect><g fill="#00ebc7"><circle r="51" cx="505" cy="303"></circle><circle r="4" cx="460" cy="440"></circle><circle r="35" cx="807" cy="138"></circle><circle r="44" cx="93" cy="279"></circle><circle r="42" cx="593" cy="7"></circle><circle r="45" cx="263" cy="91"></circle><circle r="31" cx="384" cy="507"></circle><circle r="27" cx="924" cy="230"></circle><circle r="25" cx="260" cy="324"></circle><circle r="28" cx="929" cy="23"></circle><circle r="34" cx="475" cy="76"></circle><circle r="38" cx="714" cy="467"></circle><circle r="37" cx="629" cy="528"></circle><circle r="28" cx="890" cy="538"></circle><circle r="37" cx="111" cy="138"></circle><circle r="25" cx="559" cy="143"></circle><circle r="7" cx="868" cy="347"></circle><circle r="20" cx="750" cy="312"></circle><circle r="37" cx="380" cy="162"></circle><circle r="6" cx="105" cy="414"></circle><circle r="41" cx="594" cy="418"></circle><circle r="44" cx="14" cy="87"></circle><circle r="34" cx="64" cy="508"></circle><circle r="41" cx="6" cy="198"></circle><circle r="17" cx="719" cy="212"></circle><circle r="16" cx="110" cy="32"></circle><circle r="18" cx="261" cy="479"></circle><circle r="16" cx="273" cy="220"></circle><circle r="36" cx="353" cy="12"></circle><circle r="48" cx="622" cy="265"></circle><circle r="37" cx="681" cy="100"></circle><circle r="23" cx="396" cy="334"></circle><circle r="41" cx="943" cy="452"></circle><circle r="4" cx="791" cy="35"></circle><circle r="38" cx="3" cy="346"></circle><circle r="15" cx="169" cy="529"></circle><circle r="48" cx="825" cy="440"></circle><circle r="31" cx="939" cy="128"></circle></g></svg>